<svg width="192" height="132" viewBox="0 0 192 132" fill="none" xmlns="http://www.w3.org/2000/svg">
<path fill-rule="evenodd" clip-rule="evenodd" d="M66.9283 54C66.9757 53.5064 67 53.006 67 52.5C67 43.9396 60.0604 37 51.5 37C42.9396 37 36 43.9396 36 52.5C36 56.8005 37.7514 60.692 40.5798 63.5C37.7514 66.308 36 70.1995 36 74.5C36 83.0604 42.9396 90 51.5 90C60.0604 90 67 83.0604 67 74.5C67 73.994 66.9757 73.4936 66.9283 73H124.072C124.024 73.4936 124 73.994 124 74.5C124 83.0604 130.94 90 139.5 90C148.06 90 155 83.0604 155 74.5C155 70.1995 153.249 66.308 150.42 63.5C153.249 60.692 155 56.8005 155 52.5C155 43.9396 148.06 37 139.5 37C130.94 37 124 43.9396 124 52.5C124 53.006 124.024 53.5064 124.072 54H66.9283Z" fill="#FBB500"/>
<path d="M6.608 108.48H0.112V105.4H16.744V108.48H10.248V125H6.608V108.48ZM37.9558 121.948V125H23.2558V105.4H37.5638V108.452H26.8958V113.548H36.3598V116.544H26.8958V121.948H37.9558ZM58.6176 125L54.6136 119.26C54.4456 119.279 54.1936 119.288 53.8576 119.288H49.4336V125H45.7936V105.4H53.8576C55.5562 105.4 57.0309 105.68 58.2816 106.24C59.5509 106.8 60.5216 107.603 61.1936 108.648C61.8656 109.693 62.2016 110.935 62.2016 112.372C62.2016 113.847 61.8376 115.116 61.1096 116.18C60.4002 117.244 59.3736 118.037 58.0296 118.56L62.5376 125H58.6176ZM58.5336 112.372C58.5336 111.121 58.1229 110.16 57.3016 109.488C56.4802 108.816 55.2762 108.48 53.6896 108.48H49.4336V116.292H53.6896C55.2762 116.292 56.4802 115.956 57.3016 115.284C58.1229 114.593 58.5336 113.623 58.5336 112.372ZM82.878 125L78.874 119.26C78.706 119.279 78.454 119.288 78.118 119.288H73.694V125H70.054V105.4H78.118C79.8167 105.4 81.2914 105.68 82.542 106.24C83.8114 106.8 84.782 107.603 85.454 108.648C86.126 109.693 86.462 110.935 86.462 112.372C86.462 113.847 86.098 115.116 85.37 116.18C84.6607 117.244 83.634 118.037 82.29 118.56L86.798 125H82.878ZM82.794 112.372C82.794 111.121 82.3834 110.16 81.562 109.488C80.7407 108.816 79.5367 108.48 77.95 108.48H73.694V116.292H77.95C79.5367 116.292 80.7407 115.956 81.562 115.284C82.3834 114.593 82.794 113.623 82.794 112.372ZM107.027 120.464H97.2265L95.2945 125H91.5425L100.363 105.4H103.947L112.795 125H108.987L107.027 120.464ZM105.823 117.608L102.127 109.04L98.4585 117.608H105.823ZM138.649 105.4C140.348 105.4 141.823 105.68 143.073 106.24C144.343 106.8 145.313 107.603 145.985 108.648C146.657 109.693 146.993 110.935 146.993 112.372C146.993 113.791 146.657 115.032 145.985 116.096C145.313 117.141 144.343 117.944 143.073 118.504C141.823 119.064 140.348 119.344 138.649 119.344H134.225V125H130.585V105.4H138.649ZM138.481 116.264C140.068 116.264 141.272 115.928 142.093 115.256C142.915 114.584 143.325 113.623 143.325 112.372C143.325 111.121 142.915 110.16 142.093 109.488C141.272 108.816 140.068 108.48 138.481 108.48H134.225V116.264H138.481ZM169.108 121.948V125H154.408V105.4H168.716V108.452H158.048V113.548H167.512V116.544H158.048V121.948H169.108ZM180.922 108.48H174.426V105.4H191.058V108.48H184.562V125H180.922V108.48Z" fill="black"/>
<path d="M189 96C189 44.0852 147.362 2 96 2C44.6375 2 3 44.0852 3 96" stroke="black" stroke-width="4" stroke-linecap="square"/>
</svg>
